<svg width="36" height="32" viewBox="0 0 36 32" fill="none" xmlns="http://www.w3.org/2000/svg">
<path d="M32.1751 17.0824L18.0157 31L3.8564 17.0824C2.92246 16.1805 2.18681 15.0964 1.69578 13.8984C1.20474 12.7004 0.968959 11.4145 1.00327 10.1216C1.03759 8.82877 1.34126 7.55697 1.89516 6.3863C2.44906 5.21564 3.2412 4.17148 4.22169 3.31957C5.20218 2.46766 6.34978 1.82647 7.59222 1.43635C8.83467 1.04624 10.145 0.915669 11.4408 1.05285C12.7366 1.19004 13.9898 1.59201 15.1213 2.23346C16.2529 2.87491 17.2384 3.74193 18.0157 4.77994C18.7964 3.74947 19.7831 2.89002 20.9139 2.25538C22.0447 1.62074 23.2953 1.22457 24.5874 1.09167C25.8796 0.958775 27.1855 1.09201 28.4234 1.48303C29.6612 1.87405 30.8045 2.51445 31.7815 3.36413C32.7586 4.21382 33.5484 5.25451 34.1015 6.42107C34.6547 7.58763 34.9592 8.85494 34.9962 10.1437C35.0331 11.4325 34.8016 12.7149 34.3162 13.9108C33.8308 15.1067 33.1019 16.1902 32.1751 17.0937" stroke="#25A1FF" stroke-width="2" stroke-linecap="round" stroke-linejoin="round"/>
</svg>
