<svg width="28" height="36" viewBox="0 0 28 36" fill="none" xmlns="http://www.w3.org/2000/svg">
<path d="M13.6189 0C15.5428 0 17.4236 0.526353 19.0233 1.5125C20.6231 2.49865 21.8699 3.90029 22.6062 5.5402C23.3424 7.1801 23.5351 8.9846 23.1597 10.7255C22.7844 12.4664 21.8579 14.0655 20.4974 15.3207C19.137 16.5758 17.4037 17.4306 15.5167 17.7768C13.6297 18.1231 11.6737 17.9454 9.89622 17.2661C8.1187 16.5869 6.59943 15.4366 5.53053 13.9607C4.46163 12.4848 3.89111 10.7497 3.89111 8.97464L3.90083 8.58514C4.00963 6.27462 5.08102 4.09204 6.89158 2.49254C8.70214 0.893051 11.1121 0.000133619 13.6189 0Z" fill="white"/>
<path d="M17.51 21.5391C20.0899 21.5391 22.5642 22.4847 24.3885 24.1677C26.2129 25.8508 27.2377 28.1335 27.2377 30.5138V32.3087C27.2377 33.2608 26.8278 34.1739 26.0981 34.8471C25.3683 35.5203 24.3786 35.8986 23.3466 35.8986H3.89111C2.85912 35.8986 1.8694 35.5203 1.13968 34.8471C0.409956 34.1739 1.90735e-06 33.2608 1.90735e-06 32.3087V30.5138C1.90735e-06 28.1335 1.02489 25.8508 2.8492 24.1677C4.67351 22.4847 7.1478 21.5391 9.72777 21.5391H17.51Z" fill="white"/>
</svg>
