<svg width="34" height="32" viewBox="0 0 34 32" fill="none" xmlns="http://www.w3.org/2000/svg">
<path d="M2.52437 17.8751C2.52437 19.5987 2.89234 21.3055 3.60729 22.8979C4.32223 24.4903 5.37014 25.9371 6.69119 27.1559C8.01223 28.3747 9.58054 29.3415 11.3066 30.0011C13.0326 30.6607 14.8825 31.0001 16.7508 31.0001C18.619 31.0001 20.469 30.6607 22.195 30.0011C23.921 29.3415 25.4893 28.3747 26.8104 27.1559C28.1314 25.9371 29.1793 24.4903 29.8943 22.8979C30.6092 21.3055 30.9772 19.5987 30.9772 17.8751C30.9772 16.1515 30.6092 14.4448 29.8943 12.8524C29.1793 11.26 28.1314 9.81312 26.8104 8.59435C25.4893 7.37558 23.921 6.4088 22.195 5.7492C20.469 5.08961 18.619 4.75012 16.7508 4.75012C14.8825 4.75012 13.0326 5.08961 11.3066 5.7492C9.58054 6.4088 8.01223 7.37558 6.69119 8.59435C5.37014 9.81312 4.32223 11.26 3.60729 12.8524C2.89234 14.4448 2.52437 16.1515 2.52437 17.8751Z" stroke="#FF408B" stroke-width="2" stroke-linecap="round" stroke-linejoin="round"/>
<path d="M16.7508 12.2501V17.8751H20.8155" stroke="#FF408B" stroke-width="2" stroke-linecap="round" stroke-linejoin="round"/>
<path d="M6.58905 1.00012L1.00011 4.75013" stroke="#FF408B" stroke-width="2" stroke-linecap="round" stroke-linejoin="round"/>
<path d="M26.9125 1.00012L32.5014 4.75013" stroke="#FF408B" stroke-width="2" stroke-linecap="round" stroke-linejoin="round"/>
</svg>
